<?xml version="1.0" encoding="utf-8"?>
<!-- Generator: Adobe Illustrator 16.0.0, SVG Export Plug-In . SVG Version: 6.00 Build 0)  -->
<svg version="1.2" baseProfile="tiny" id="Layer_1" xmlns="http://www.w3.org/2000/svg" xmlns:xlink="http://www.w3.org/1999/xlink"
	 x="0px" y="0px" width="200px" height="200px" viewBox="0 0 200 200" xml:space="preserve">
<radialGradient id="SVGID_1_" cx="100.1055" cy="99.6523" r="93.1191" gradientUnits="userSpaceOnUse">
	<stop  offset="0.5025" style="stop-color:#A68AC0"/>
	<stop  offset="1" style="stop-color:#855EA8"/>
</radialGradient>
<circle fill="url(#SVGID_1_)" stroke="#74489D" stroke-width="7.4559" stroke-miterlimit="10" cx="100.106" cy="99.652" r="93.119"/>
<path fill="#FFFFFF" d="M71.422,18.532c-23.627,9.244-31.3,15.711-44.691,38.087C26.731,56.62,44.071,31.398,71.422,18.532z"/>
<path fill="#FFFFFF" d="M132.017,179.129c23.365-9.888,30.857-16.563,43.631-39.297
	C175.647,139.832,159.004,165.519,132.017,179.129z"/>
<g>
	<path fill="#F7931E" stroke="#F15A24" stroke-width="1.4912" stroke-miterlimit="10" d="M57.947,140.041h0.196
		c1.319,2.787,2.704,5.625,4.158,8.513c4.651,0.66,7.787,1.121,9.402,1.386c-4.488,4.438-6.73,6.713-6.73,6.828
		c0,0.232,0.527,3.333,1.583,9.307h-0.097c-5.429-2.906-8.264-4.355-8.512-4.355l-8.414,4.355v-0.101
		c1.056-5.774,1.583-8.907,1.583-9.402c-3.285-3.135-5.528-5.345-6.73-6.632c5.89-0.859,9.054-1.353,9.501-1.485L57.947,140.041z"/>
	<path fill="#F7931E" stroke="#F15A24" stroke-width="1.4912" stroke-miterlimit="10" d="M134.661,142.911h0.201
		c1.318,2.788,2.704,5.626,4.157,8.514c4.649,0.658,7.784,1.121,9.403,1.386c-4.492,4.438-6.731,6.713-6.731,6.828
		c0,0.231,0.525,3.333,1.583,9.305h-0.1c-5.427-2.903-8.265-4.354-8.514-4.354l-8.413,4.354v-0.099
		c1.057-5.774,1.583-8.908,1.583-9.402c-3.281-3.135-5.526-5.346-6.726-6.632c5.884-0.858,9.056-1.353,9.5-1.484L134.661,142.911z"
		/>
	<path fill="#F7931E" stroke="#F15A24" stroke-width="1.4912" stroke-miterlimit="10" d="M98.005,153.059h0.198
		c1.319,2.787,2.704,5.625,4.157,8.511c4.649,0.66,7.784,1.123,9.403,1.386c-4.489,4.438-6.731,6.715-6.731,6.83
		c0,0.23,0.527,3.332,1.583,9.304h-0.098c-5.429-2.903-8.269-4.354-8.512-4.354l-8.417,4.354v-0.099
		c1.06-5.775,1.587-8.909,1.587-9.403c-3.285-3.135-5.526-5.345-6.73-6.632c5.886-0.856,9.056-1.353,9.499-1.484L98.005,153.059z"/>
</g>
<g>
	<path fill="#74489D" stroke="#662D91" stroke-width="1.4912" stroke-miterlimit="10" d="M151.994,114.037
		c-0.244,0.69-0.655,1.456-1.228,2.297l18.548,6.251l-3.453,10.241l-22.229-7.49c-10.808,10.069-25.054,15.105-42.738,15.105
		c-18.013,0-32.422-5.198-43.229-15.597l-23.579,7.984l-3.304-10.163l20.01-6.775c-0.491-0.906-0.819-1.524-0.982-1.854
		l-20.144-0.86l0.368-10.807l17.193,0.736v-0.736c0-6.141,1.965-11.953,5.895-17.439c-1.311-10.151-1.964-18.993-1.964-26.527
		c0-10.807,1.719-16.21,5.158-16.21c5.484,0,15.637,7.819,30.457,23.457c4.748-0.9,9.457-1.351,14.124-1.351
		c4.338,0,8.8,0.411,13.386,1.228c14.818-15.555,24.931-23.333,30.335-23.333c3.438,0,5.157,5.403,5.157,16.21
		c0,7.206-0.613,15.72-1.842,25.545c4.421,5.732,6.632,11.872,6.632,18.421v0.736l15.352-0.736l0.491,10.807L151.994,114.037z
		 M76.21,106.914c2.128,0,3.93-0.737,5.403-2.211s2.21-3.273,2.21-5.403c0-2.128-0.737-3.93-2.21-5.404
		c-1.474-1.474-3.275-2.21-5.403-2.21c-2.131,0-3.93,0.737-5.404,2.21c-1.474,1.474-2.21,3.276-2.21,5.404
		c0,2.13,0.737,3.93,2.21,5.403C72.28,106.177,74.079,106.914,76.21,106.914z M125.579,106.914c2.128,0,3.931-0.737,5.403-2.211
		c1.475-1.474,2.211-3.273,2.211-5.403c0-2.128-0.736-3.93-2.211-5.404c-1.473-1.474-3.275-2.21-5.403-2.21
		c-2.13,0-3.93,0.737-5.403,2.21c-1.474,1.474-2.211,3.276-2.211,5.404c0,2.13,0.737,3.93,2.211,5.403
		S123.449,106.914,125.579,106.914z"/>
</g>
<g>
	<path fill="#EDEDF6" stroke="#CCCCCC" stroke-width="1.4912" stroke-miterlimit="10" d="M118.535,41.295
		c-2.552,5.4-6.583,8.909-12.094,10.528c-5.099,1.499-10.019,0.987-14.756-1.537c-4.738-2.523-7.856-6.335-9.355-11.435
		c-0.973-3.312-1.053-6.695-0.238-10.151c0.815-3.456,2.416-6.378,4.802-8.768c2.116-2.118,3.597-3.254,4.443-3.408
		c-0.958,1.619-1.494,3.799-1.612,6.54c-0.128,2.49,0.105,4.746,0.7,6.768c1.499,5.1,4.619,8.92,9.362,11.458
		c4.742,2.539,9.663,3.058,14.763,1.559c0.264-0.077,0.941-0.372,2.033-0.884C117.478,41.542,118.128,41.319,118.535,41.295z"/>
</g>
</svg>
