<?xml version="1.0" encoding="utf-8"?>
<!-- Generator: Adobe Illustrator 16.0.0, SVG Export Plug-In . SVG Version: 6.00 Build 0)  -->
<!DOCTYPE svg PUBLIC "-//W3C//DTD SVG 1.1//EN" "http://www.w3.org/Graphics/SVG/1.1/DTD/svg11.dtd">
<svg version="1.1" id="Layer_1" xmlns="http://www.w3.org/2000/svg" xmlns:xlink="http://www.w3.org/1999/xlink" x="0px" y="0px"
	 width="260.692px" height="236.973px" viewBox="0 3.484 260.692 236.973" enable-background="new 0 3.484 260.692 236.973"
	 xml:space="preserve">
<g>
	<path d="M167.858,220.704H19.745V23.229h148.113v33.655l19.736-22.005V23.587c0-11.099-8.999-20.103-20.104-20.103H20.104
		C9.004,3.484,0,12.479,0,23.587v196.767c0,11.104,9.004,20.104,20.104,20.104h147.404c11.096,0,20.104-8.999,20.104-20.104v-64.79
		l-19.754,22.017V220.704L167.858,220.704z"/>
	<path d="M151.095,59.438c0-5.452-4.407-9.867-9.86-9.867H46.257c-5.444-0.009-9.867,4.415-9.867,9.867
		c0,5.444,4.423,9.869,9.867,9.869h94.97C146.688,69.307,151.095,64.882,151.095,59.438z"/>
	<path d="M137.505,90.939H46.257c-5.452,0-9.867,4.425-9.867,9.87c0,5.451,4.423,9.876,9.867,9.876h73.526L137.505,90.939z"/>
	<path d="M100.597,131.84h-54.34c-5.452,0-9.867,4.425-9.867,9.878c0,5.444,4.423,9.867,9.867,9.867h43.157L100.597,131.84z"/>
	<path d="M36.39,183.096c0,5.453,4.423,9.868,9.867,9.868h31.606c0.123-1.418,0.327-2.185,0.639-3.26l4.75-16.492H46.257
		C40.813,173.229,36.39,177.644,36.39,183.096z"/>
	<path d="M184.599,60.387l-68.952,76.858l-5.329,5.946l37.963,34.054l5.326-5.946l68.951-76.859l6.218-6.938l-37.951-34.046
		L184.599,60.387z M181.314,95.102l-45.213,50.403c-0.559,0.637-1.363,1.012-2.213,1.051c-0.849,0.049-1.682-0.239-2.308-0.805
		l-2.235-2.008c-1.315-1.188-1.423-3.196-0.247-4.512l45.217-50.407c0.567-0.638,1.355-1.021,2.209-1.06
		c0.837-0.041,1.673,0.242,2.303,0.816l2.231,2.017C182.398,91.762,182.494,93.786,181.314,95.102z M194.459,71.151l2.24,2.009
		c1.308,1.177,1.418,3.2,0.238,4.516l-0.574,0.643l-3.228,3.598L193,82.065c-0.559,0.637-1.355,1.012-2.209,1.056
		c-0.853,0.048-1.673-0.239-2.303-0.817l-2.247-2.009c-0.63-0.563-1.006-1.363-1.054-2.205c-0.048-0.849,0.249-1.682,0.821-2.312
		l3.93-4.379C191.119,70.083,193.145,69.968,194.459,71.151z"/>
	<polygon points="197.345,46.182 194.49,49.366 232.441,83.411 235.312,80.211 241.76,73.021 203.809,38.983 	"/>
	<path d="M260.676,47.091c-0.159-2.926-1.475-5.667-3.644-7.625l-21.514-19.299c-2.184-1.955-5.054-2.962-7.972-2.806
		c-2.917,0.164-5.676,1.472-7.62,3.655l-12.689,14.141l37.958,34.029l12.674-14.141C259.823,52.886,260.836,50.02,260.676,47.091z
		 M244.414,55.015l-22.996-20.626l6.64-7.394l22.981,20.617L244.414,55.015z"/>
	<path d="M94.336,199.19c1.565,1.402,3.803,1.793,5.755,0.996l43.631-17.872l-37.943-34.036l-13.052,45.309
		C92.14,195.612,92.77,197.788,94.336,199.19z M109.254,160.379l22.04,19.784l-17.142,7.022l-10.031-9L109.254,160.379z"/>
</g>
</svg>
