<?xml version="1.0"?><svg width="640" height="480" xmlns="http://www.w3.org/2000/svg">
 <title>chucky saturn 3</title>
 <g>
  <title>Layer 1</title>
  <g id="g1346">
   <path fill="#ff7f00" fill-rule="nonzero" stroke-width="0.316548" stroke-linecap="round" stroke-linejoin="round" stroke-miterlimit="4" stroke-dashoffset="0" id="path8162" d="m441.569427,283.941742c-37.633453,63.27243 -126.123077,82.070251 -197.647186,41.986115c-71.524033,-40.084076 -98.997833,-123.871063 -61.364349,-187.143524c37.633453,-63.272415 126.123108,-82.070274 197.647156,-41.986168c71.52417,40.084129 98.997833,123.871193 61.36438,187.143578z"/>
  </g>
  <g transform="rotate(-55 305.8805847167969,218.02687072753912) " id="g16666">
   <path fill="#7fff00" fill-rule="nonzero" stroke-width="0.616034" stroke-linecap="round" stroke-linejoin="round" stroke-miterlimit="4" stroke-dashoffset="0" id="path30933" d="m226.603958,100.804153c-106.38546,-50.913986 -188.804161,-73.263428 -201.593906,-50.974304c-17.04402,29.703156 95.972408,127.49794 252.270802,218.293747c156.29834,90.795837 297.000519,140.389435 314.044464,110.68631c12.469788,-21.731384 -44.851807,-79.959656 -137.638611,-145.182495c-0.032684,0.483032 -0.132446,0.958801 -0.170776,1.441315c89.191345,63.033203 144.08728,119.077667 132.010254,140.124756c-16.669067,29.049683 -154.276062,-19.442719 -307.135864,-108.241028c-152.859818,-88.798294 -263.380808,-184.446709 -246.7118,-213.496407c12.367565,-21.553352 91.349144,-0.353348 193.693748,48.255714c0.418839,-0.287903 0.809967,-0.62529 1.231689,-0.907623l-0.000015,0l0.000015,0.000015z"/>
   <path fill="#7fff00" fill-rule="nonzero" stroke-width="0.616034" stroke-linecap="round" stroke-linejoin="round" stroke-miterlimit="4" stroke-dashoffset="0" id="path31697" d="m225.051147,101.937851c-101.461441,-48.107727 -179.703316,-69.063606 -191.978199,-47.671761c-16.585293,28.903748 93.379192,124.065834 245.471272,212.418144c152.092041,88.352295 289.002167,136.602966 305.587555,107.699219c11.985168,-20.886993 -42.304993,-76.424957 -130.638062,-138.942505c-0.206482,2.502686 -0.4375,5.001831 -0.796753,7.487579c71.80835,52.4664 114.753906,98.057709 104.551331,115.837982c-14.966614,26.082825 -138.519653,-17.469818 -275.767944,-97.199158c-137.24826,-79.729355 -236.490612,-165.601486 -221.523972,-191.684341c10.496925,-18.293327 74.482239,-2.247398 159.063522,36.419083c1.961792,-1.538849 3.996521,-2.956268 6.031281,-4.364243l-0.000031,0z"/>
   <path fill="#7fff00" fill-opacity="0.72973" fill-rule="nonzero" stroke-width="0.616034" stroke-linecap="round" stroke-linejoin="round" stroke-miterlimit="4" stroke-dashoffset="0" id="path31705" d="m206.496597,117.596451c-47.076828,-18.555115 -80.679306,-24.595886 -87.195755,-13.239441c-11.394341,19.8573 64.166138,85.225082 168.655518,145.924332c104.48941,60.69928 198.553101,93.868469 209.947449,74.0112c6.170441,-10.753387 -13.316803,-34.899872 -48.935638,-64.383087c-0.874908,2.978394 -1.828888,5.948242 -2.93808,8.884613c18.824066,17.913208 28.173401,32.142456 24.047058,39.333557c-9.719818,16.939026 -89.956329,-11.349335 -179.089966,-63.128235c-89.13353,-51.778854 -153.579468,-107.538391 -143.859619,-124.477478c4.529755,-7.894165 24.496078,-5.861649 53.415909,3.684998c1.917999,-2.28331 3.90123,-4.494797 5.953125,-6.610458z"/>
   <path fill="#7fff00" fill-rule="nonzero" stroke-width="0.616034" stroke-linecap="round" stroke-linejoin="round" stroke-miterlimit="4" stroke-dashoffset="0" id="path31701" d="m217.767685,107.197769c-81.089722,-36.73806 -142.104721,-51.726685 -152.233673,-34.074623c-14.631714,25.499168 82.373047,109.446709 216.550156,187.39193c134.177063,77.945282 254.954651,120.510437 269.586548,95.011322c9.825256,-17.122894 -30.833435,-60.642731 -99.145508,-110.964478c-0.818207,5.17038 -2.067108,10.275482 -3.557037,15.347534c35.618835,29.483215 55.106079,53.6297 48.935638,64.383087c-11.394226,19.85733 -105.458038,-13.31192 -209.947449,-74.0112c-104.48938,-60.699249 -180.049858,-126.067032 -168.655518,-145.924332c6.516472,-11.356476 40.118927,-5.315674 87.195755,13.239441c3.591644,-3.703186 7.322266,-7.221252 11.271088,-10.398682z"/>
  </g>
 </g>
</svg>