<?xml version="1.0" encoding="utf-8"?>
<!-- Generator: Adobe Illustrator 16.0.0, SVG Export Plug-In . SVG Version: 6.00 Build 0)  -->
<!DOCTYPE svg PUBLIC "-//W3C//DTD SVG 1.1//EN" "http://www.w3.org/Graphics/SVG/1.1/DTD/svg11.dtd">
<svg version="1.1" id="Capa_1" xmlns="http://www.w3.org/2000/svg" xmlns:xlink="http://www.w3.org/1999/xlink" x="0px" y="0px"
	 width="20px" height="20.002px" viewBox="0 0 20 20.002" enable-background="new 0 0 20 20.002" xml:space="preserve">
<path fill="#FFFFFF" d="M14.755,6.737l-1.203,3.215h-0.229V6.737H14.755z M5.09,6.739H3.491v3.215L6.69,9.952L6.689,8.346V6.739
	H5.09z M5.09,6.66h1.599V3.445H3.49L3.491,6.66H5.09z M13.325,13.244l3.196-0.002v-3.213h-2.024l-0.845,2.257
	c-0.055,0.145-0.18,0.242-0.327,0.275V13.244z M9.965,3.443L6.769,3.445V6.66l3.196-0.002V3.443z M5.091,13.246h1.498l0.102-0.204
	v-3.011l-3.199,0.002l0.002,3.215L5.091,13.246z M13.244,6.658l-0.001-1.612l-0.001-1.603h-3.198v3.215h1.601H13.244z M6.549,13.325
	l-3.056,0.002v2.515l2.699-1.802L6.549,13.325z M9.255,9.952h0.712L9.966,8.545L9.96,8.539L9.255,9.952z M16.52,6.656V4.628
	l-0.759,2.03L16.52,6.656z M20,4v12.002c0,2.2-1.8,4-4,4H4c-2.2,0-4-1.8-4-4V4c0-2.2,1.8-4,4-4h12C18.2,0,20,1.8,20,4z M17.5,17.496
	L17.495,2.502L2.5,2.506L2.502,17.5L17.5,17.496z M7.61,13.246h2.356v-3.215H9.215L7.61,13.246z M16.52,6.735H15.73L14.527,9.95
	h1.994L16.52,6.735z M13.325,13.323v3.215h3.196v-3.219L13.325,13.323z M12.164,9.952h1.081V6.737h-1.601h-1.601v0.516
	c0.08,0.028,0.152,0.074,0.205,0.146L12.164,9.952z M6.77,10.031v2.854l1.425-2.854H6.77z M9.967,13.325H7.571l-0.616,1.232
	C6.919,14.627,6.867,14.69,6.8,14.733l-0.029,0.02v0.186l0.002,1.603l3.197-0.002l-0.001-1.606L9.967,13.325z M10.048,14.933
	l0.001,1.605h3.197v-3.215l-3.2,0.002L10.048,14.933z M13.244,10.771v-0.738h-1.021l0.866,1.152L13.244,10.771z M11.021,9.952
	l-0.977-1.301l0.001,1.301H11.021z M6.691,14.806l-2.6,1.734h2.603l-0.002-1.604L6.691,14.806L6.691,14.806z M14.784,6.658
	l1.205-3.217l-2.667,0.002l0.001,1.603l0.001,1.612H14.784z M8.233,9.952l1.241-2.483c0.071-0.142,0.21-0.237,0.367-0.251
	c0.045-0.003,0.083,0.014,0.124,0.021V6.737L6.769,6.739v1.606L6.77,9.952H8.233z M11.081,10.031h-1.035v3.215l3.2-0.002v-0.673
	c-0.15,0.006-0.296-0.051-0.389-0.172L11.081,10.031z M13.323,10.031v0.526l0.198-0.526H13.323z"/>
</svg>
