<?xml version="1.0" encoding="utf-8"?>
<!-- Generator: Adobe Illustrator 16.0.0, SVG Export Plug-In . SVG Version: 6.00 Build 0)  -->
<!DOCTYPE svg PUBLIC "-//W3C//DTD SVG 1.1//EN" "http://www.w3.org/Graphics/SVG/1.1/DTD/svg11.dtd">
<svg version="1.1" id="Layer_1" xmlns="http://www.w3.org/2000/svg" xmlns:xlink="http://www.w3.org/1999/xlink" x="0px" y="0px"
	 width="12px" height="14px" viewBox="0 0 12 14" enable-background="new 0 0 12 14" xml:space="preserve">
<path fill="#FFFFFF" d="M0,9h3v1H0V9z"/>
<path fill="#FFFFFF" d="M11.004,0H1.996C1.445,0,1,0.45,1,1.007V3h2c0.557,0,1,0.447,1,0.999v1.002C4,5.557,3.553,6,3,6H1v2h2
	c0.557,0,1,0.447,1,0.999v1.002C4,10.559,3.553,11,3,11H1v1.993C1,13.549,1.445,14,1.996,14h9.008C11.555,14,12,13.55,12,12.993
	V1.007C12,0.451,11.555,0,11.004,0z"/>
<path fill="#FFFFFF" d="M0,4h3v1H0V4z"/>
</svg>
