<?xml version="1.0" encoding="utf-8"?>
<!-- Generator: Adobe Illustrator 16.0.0, SVG Export Plug-In . SVG Version: 6.00 Build 0)  -->
<!DOCTYPE svg PUBLIC "-//W3C//DTD SVG 1.1//EN" "http://www.w3.org/Graphics/SVG/1.1/DTD/svg11.dtd">
<svg version="1.1" id="Capa_1" xmlns="http://www.w3.org/2000/svg" xmlns:xlink="http://www.w3.org/1999/xlink" x="0px" y="0px"
	 width="28.035px" height="24.34px" viewBox="0 0 28.035 24.34" enable-background="new 0 0 28.035 24.34" xml:space="preserve">
<path fill="#FFFFFF" d="M26.091,0H1.942C0.872,0,0,0.871,0,1.942v13.389c0,1.07,0.871,1.942,1.942,1.942h2.396l3.051,2.961
	l0.098,0.083c0.366,0.273,0.761,0.418,1.143,0.418c0.733,0,1.522-0.549,1.52-1.754v-1.709h2.768
	c-1.087,1.67-1.741,3.775-1.741,6.068v1h16.045v-1c0-2.293-0.655-4.398-1.742-6.068h0.611c1.07,0,1.943-0.871,1.943-1.941V1.942
	C28.035,0.872,27.164,0,26.091,0z M13.225,22.34c0.204-2.045,1.028-3.838,2.215-5.068c1.032-1.07,2.336-1.716,3.759-1.716
	c1.422,0,2.727,0.646,3.758,1.716c1.188,1.23,2.012,3.023,2.215,5.068H13.225z M16.089,10.061c0-1.715,1.395-3.11,3.109-3.11
	s3.11,1.396,3.11,3.11s-1.396,3.109-3.11,3.109S16.089,11.776,16.089,10.061z M23.728,15.272c-0.497-0.416-1.035-0.76-1.604-1.033
	c1.316-0.925,2.185-2.45,2.185-4.178c0-2.818-2.292-5.11-5.11-5.11s-5.11,2.293-5.11,5.11c0,1.729,0.868,3.253,2.185,4.178
	c-0.567,0.273-1.106,0.617-1.604,1.033H8.152l-0.003,2.91l-2.999-2.91H4.745l-2.743,0.059L1.944,1.999l24.093-0.058l0.058,13.331
	H23.728z M3.818,3.576h10.947v1.428H3.818V3.576z M12.176,7.844H3.818V6.416h8.358V7.844z M12.176,10.684H3.818V9.256h8.358V10.684z
	 M3.818,12.095h8.99v1.428h-8.99V12.095z"/>
</svg>
