<?xml version="1.0" encoding="utf-8"?>
<!-- Generator: Adobe Illustrator 16.0.0, SVG Export Plug-In . SVG Version: 6.00 Build 0)  -->
<!DOCTYPE svg PUBLIC "-//W3C//DTD SVG 1.1//EN" "http://www.w3.org/Graphics/SVG/1.1/DTD/svg11.dtd">
<svg version="1.1" id="Layer_1" xmlns="http://www.w3.org/2000/svg" xmlns:xlink="http://www.w3.org/1999/xlink" x="0px" y="0px"
	 width="16px" height="16px" viewBox="0 0 16 16" enable-background="new 0 0 16 16" xml:space="preserve">
<path fill="#FFFFFF" d="M12.99,0H3.01C1.348,0,0,1.337,0,3.01v9.98C0,14.652,1.337,16,3.01,16h9.98c1.662,0,3.01-1.337,3.01-3.01
	V3.01C16,1.348,14.663,0,12.99,0z M3,14H1v-2h2V14z M3,11H1V9h2V11z M3,8H1V6h2V8z M3,5H1V3h2V5z M15,14H4v-2h11V14z M15,11H4V9h11
	V11z M15,8H4V6h11V8z M15,5H4V3h11V5z"/>
</svg>
