<?xml version="1.0" encoding="utf-8"?>
<!-- Generator: Adobe Illustrator 16.0.0, SVG Export Plug-In . SVG Version: 6.00 Build 0)  -->
<!DOCTYPE svg PUBLIC "-//W3C//DTD SVG 1.1//EN" "http://www.w3.org/Graphics/SVG/1.1/DTD/svg11.dtd">
<svg version="1.1" id="Capa_1" xmlns="http://www.w3.org/2000/svg" xmlns:xlink="http://www.w3.org/1999/xlink" x="0px" y="0px"
	 width="16px" height="15px" viewBox="0 0 16 15" enable-background="new 0 0 16 15" xml:space="preserve">
<path fill="#FFFFFF" d="M8.189,9.441V8.25c0.516-0.322,0.859-0.909,0.859-1.586V2.957c0-1.023-0.801-1.852-1.782-1.852H5.482
	c-0.985,0-1.782,0.822-1.782,1.852v3.708c0,0.693,0.369,1.297,0.913,1.615v1.162c-1.824,1.85-5.37,2.779-5.37,2.779V15h14.261
	v-2.779C13.505,12.221,9.932,11.251,8.189,9.441z"/>
<path fill="#FFFFFF" d="M13.363,11.104v-0.836c0.361-0.225,0.603-0.637,0.603-1.111v-2.6c0-0.716-0.562-1.297-1.248-1.297h-1.254
	c-0.688,0-1.249,0.577-1.249,1.297v2.6c0,0.486,0.262,0.908,0.642,1.133v0.814c-1.278,1.297-3.765,1.947-3.765,1.947V15h9.999
	v-1.949C17.091,13.051,14.585,12.371,13.363,11.104z"/>
</svg>
