<?xml version="1.0" encoding="utf-8"?>
<!-- Generator: Adobe Illustrator 16.0.0, SVG Export Plug-In . SVG Version: 6.00 Build 0)  -->
<!DOCTYPE svg PUBLIC "-//W3C//DTD SVG 1.1//EN" "http://www.w3.org/Graphics/SVG/1.1/DTD/svg11.dtd">
<svg version="1.1" id="Capa_1" xmlns="http://www.w3.org/2000/svg" xmlns:xlink="http://www.w3.org/1999/xlink" x="0px" y="0px"
	 width="64px" height="64px" viewBox="0 0 64 64" enable-background="new 0 0 64 64" xml:space="preserve">
<path fill="#FFFFFF" d="M34.803,24.697c-0.449,0.22-1.203,0.288-1.684,0.151l-6.003-1.706c-0.481-0.137-0.507-0.426-0.058-0.645
	L50.325,11.08c0.375-0.184,0.528-0.636,0.345-1.01c-0.184-0.375-0.636-0.529-1.01-0.346l-3.114,1.528
	c-1.487,0.729-2.692,0.943-2.692,0.477v-0.845c0-0.501-0.365-0.728-0.813-0.508L22.324,20.55c-0.449,0.221-1.203,0.288-1.684,0.151
	l-6.003-1.706c-0.481-0.137-0.507-0.427-0.058-0.646L37.846,6.933c0.375-0.185,0.528-0.637,0.346-1.011
	c-0.185-0.374-0.637-0.527-1.012-0.346L12.348,17.762c-0.098,0.048-0.181,0.115-0.246,0.194c-0.111,0.134-0.15,0.282-0.152,0.293
	c-0.002,0.009-0.023,0.098-0.023,0.197c0,0.101,0.022,0.585,0.022,1.085v30.302c0,0.501,0.39,1.019,0.871,1.153l7.819,2.223
	c0.481,0.137,1.214,0.031,1.636-0.236c0,0,0.482-0.308,1.077-0.686c0.595-0.377,1.077-0.151,1.077,0.506v1.189
	c0,0.5,0.39,1.016,0.872,1.151l7.818,2.224c0.48,0.137,1.213,0.029,1.636-0.238l20.813-13.221c0.423-0.268,0.766-0.891,0.766-1.392
	V15.032c0-0.5-0.363-0.726-0.813-0.507L34.803,24.697z M13.66,23.565c0-0.5,0.392-0.804,0.877-0.679l4.083,1.358
	c0.484,0.125,0.877,0.632,0.877,1.132v3.321c0,0.5-0.393,0.805-0.877,0.68l-4.083-1.358c-0.484-0.125-0.877-0.632-0.877-1.133
	V23.565z M20.98,50.139c-0.063,0.219-0.263,0.361-0.48,0.361c-0.045,0-0.092-0.006-0.139-0.02l-6.5-1.875
	c-0.265-0.076-0.418-0.354-0.342-0.619c0.077-0.264,0.352-0.42,0.619-0.342l6.5,1.875C20.904,49.596,21.057,49.873,20.98,50.139z
	 M26.14,27.714c0-0.501,0.393-0.805,0.877-0.68l4.083,1.357c0.484,0.126,0.877,0.633,0.877,1.134v3.321
	c0,0.5-0.393,0.805-0.877,0.678l-4.083-1.356c-0.484-0.125-0.877-0.633-0.877-1.132V27.714z M32.48,54.085
	c-0.063,0.22-0.263,0.36-0.48,0.36c-0.045,0-0.092-0.006-0.139-0.02l-6.5-1.875c-0.265-0.076-0.418-0.354-0.342-0.619
	c0.077-0.265,0.351-0.42,0.619-0.342l6.5,1.875C32.404,53.542,32.557,53.818,32.48,54.085z"/>
</svg>
